<?xml version="1.0" standalone="no"?>
<!DOCTYPE svg PUBLIC "-//W3C//DTD SVG 20010904//EN"
 "http://www.w3.org/TR/2001/REC-SVG-20010904/DTD/svg10.dtd">
<svg version="1.0" xmlns="http://www.w3.org/2000/svg"
 width="250.000000pt" height="247.000000pt" viewBox="0 0 250.000000 247.000000"
 preserveAspectRatio="xMidYMid meet">

<g transform="translate(0.000000,247.000000) scale(0.100000,-0.100000)"
fill="#000000" stroke="none">
<path d="M1345 2376 c-123 -38 -322 -186 -313 -232 6 -32 49 -29 94 6 21 18
52 39 67 47 41 21 27 27 -18 9 -47 -20 -48 -20 -33 5 18 29 122 106 190 140
32 16 58 31 58 34 0 3 -1 5 -2 4 -2 0 -21 -6 -43 -13z"/>
<path d="M1048 2105 c-2 -3 -34 -7 -69 -8 -49 -3 -65 -8 -67 -20 -5 -27 42
-50 88 -42 22 4 40 11 40 16 0 5 18 9 39 9 22 0 41 5 43 11 2 6 39 15 82 20
43 4 81 11 84 14 3 3 -49 5 -115 5 -66 0 -122 -2 -125 -5z"/>
<path d="M1325 2044 c-60 -13 -134 -38 -155 -54 -24 -18 -24 -18 23 -7 50 11
127 -3 127 -25 0 -6 -49 -62 -109 -124 -61 -63 -138 -153 -173 -201 -51 -70
-64 -83 -66 -65 -5 34 -22 16 -22 -23 0 -62 22 -55 59 18 34 67 121 167 222
257 71 62 99 81 154 99 37 12 76 19 86 16 26 -9 57 3 69 26 15 27 -4 57 -45
75 -32 13 -123 17 -170 8z"/>
<path d="M905 2014 c-5 -1 -22 -5 -37 -8 -21 -5 -28 -12 -28 -31 0 -13 8 -28
18 -34 15 -8 14 -11 -12 -20 -21 -9 -27 -16 -23 -31 4 -14 0 -20 -12 -20 -34
0 -187 -43 -239 -68 -123 -58 -137 -164 -26 -196 20 -6 22 -2 26 49 4 46 11
62 39 92 l34 36 -32 -22 c-17 -12 -35 -30 -38 -41 -4 -11 -11 -20 -16 -20 -30
0 18 62 74 94 53 31 208 76 256 75 36 -1 35 -1 -9 -9 -25 -5 -62 -15 -82 -24
-21 -9 -45 -16 -55 -16 -10 -1 -31 -7 -48 -15 -25 -12 -26 -14 -5 -9 20 5 23
4 13 -7 -19 -20 -16 -29 11 -29 14 0 28 -5 32 -11 5 -8 -1 -10 -19 -7 -15 3
-24 1 -21 -3 8 -14 59 -10 80 6 19 15 19 15 0 30 -28 21 2 20 33 -2 23 -15 25
-15 38 3 13 17 11 21 -14 41 l-28 23 36 0 c19 0 43 -6 52 -13 16 -11 8 -22
-73 -110 -49 -53 -90 -104 -90 -112 0 -25 -20 -27 -29 -3 -8 19 -10 13 -10
-29 -1 -71 5 -83 44 -83 41 0 51 13 57 73 3 26 16 69 30 94 20 41 35 53 103
90 106 56 108 86 10 119 -12 4 -15 8 -7 11 23 9 12 31 -20 38 l-33 8 28 4 c16
3 42 0 59 -6 50 -18 105 -14 128 9 23 23 26 50 8 68 -15 15 -84 16 -93 2 -3
-5 1 -10 10 -10 25 0 14 -33 -16 -47 -15 -7 -41 -10 -64 -6 l-38 6 34 19 c31
17 32 18 7 13 -22 -4 -27 -1 -30 18 -2 13 -7 23 -13 21z m-117 -211 c-10 -2
-28 -2 -40 0 -13 2 -5 4 17 4 22 1 32 -1 23 -4z"/>
<path d="M1647 1994 c-85 -20 -103 -33 -46 -34 52 0 73 -14 58 -41 -9 -17 -7
-17 26 -4 19 8 49 15 68 15 39 0 73 21 62 40 -9 15 -68 40 -92 39 -10 0 -44
-7 -76 -15z"/>
<path d="M1390 1845 c-7 -8 -18 -15 -24 -15 -7 0 -34 -22 -61 -50 -26 -27 -52
-47 -56 -44 -4 2 -11 -1 -14 -6 -5 -7 -11 -5 -19 6 -12 15 -15 14 -34 -14 -28
-39 -28 -53 3 -82 l24 -23 96 27 c115 33 178 32 183 -1 7 -49 -87 -102 -279
-158 -207 -61 -362 -144 -492 -264 -51 -47 -58 -51 -42 -24 10 18 16 36 11 40
-13 13 -41 -14 -41 -40 -1 -15 -11 -40 -24 -57 -13 -19 -20 -38 -16 -48 5 -13
20 -1 71 55 72 80 189 173 289 228 79 44 232 100 300 110 75 11 46 -8 -75 -49
-58 -19 -99 -35 -91 -36 8 0 -10 -15 -41 -34 -83 -50 -165 -116 -235 -188
-124 -130 -169 -239 -161 -387 17 -286 234 -517 523 -557 64 -9 105 -29 105
-54 0 -10 -16 -32 -37 -49 l-36 -30 71 19 c88 22 146 51 150 74 2 10 -6 29
-19 42 -36 38 -117 63 -226 68 -207 10 -362 98 -413 234 -25 65 -27 182 -5
267 40 156 158 340 311 485 111 105 174 141 259 148 65 5 198 -14 193 -28 -2
-4 -32 -29 -67 -56 -74 -56 -91 -78 -74 -95 8 -8 24 -7 63 6 55 18 71 15 50
-10 -11 -13 -9 -15 11 -15 13 0 31 5 39 10 27 17 -6 34 -75 38 l-65 4 38 30
c52 42 69 50 132 62 39 8 56 16 58 29 5 27 -70 56 -148 58 l-65 1 53 13 c86
21 175 56 217 84 85 58 110 143 58 195 -47 48 -88 60 -203 60 -94 1 -111 -2
-162 -26 -32 -15 -58 -24 -58 -20 0 3 17 23 37 44 20 21 34 38 31 38 -3 0 -11
-7 -18 -15z"/>
<path d="M1058 1393 c7 -3 16 -2 19 1 4 3 -2 6 -13 5 -11 0 -14 -3 -6 -6z"/>
<path d="M1114 1187 l39 -12 -87 -49 c-84 -47 -94 -60 -52 -68 36 -6 28 -27
-21 -52 -59 -30 -111 -83 -158 -161 -46 -77 -59 -125 -46 -172 12 -41 66 -103
91 -103 25 0 50 33 44 57 -3 11 4 39 15 61 12 23 23 55 24 71 2 16 10 37 17
46 27 32 3 22 -49 -21 -59 -49 -75 -53 -91 -25 -15 30 2 61 64 118 79 73 181
117 319 138 23 4 37 11 34 18 -7 23 -62 40 -147 47 l-85 6 37 17 c21 9 71 22
113 28 78 12 90 22 57 52 -14 13 -37 17 -88 16 -69 -1 -69 -1 -30 -12z"/>
<path d="M1340 952 l-23 -19 39 -20 c43 -22 69 -60 79 -114 l7 -36 -57 -6
c-61 -6 -95 -28 -95 -59 0 -17 2 -17 23 -3 13 8 44 18 70 21 l47 7 0 -37 c0
-34 -2 -36 -40 -42 -48 -8 -64 -25 -56 -60 l7 -26 24 26 c35 37 51 33 59 -14
3 -23 13 -43 21 -46 31 -12 13 -23 -52 -30 -134 -15 -170 -4 -159 48 7 33 -2
35 -38 7 -36 -28 -36 -80 0 -108 36 -29 78 -27 236 10 128 30 246 39 300 24
23 -6 23 -6 3 10 -31 25 -95 38 -164 32 -59 -5 -66 -3 -87 20 -13 14 -24 38
-24 52 0 24 5 27 61 38 87 17 91 29 7 25 -63 -3 -70 -2 -64 13 3 9 6 25 6 35
0 13 10 20 38 24 54 10 131 36 138 47 3 6 -4 8 -18 5 -12 -3 -51 -8 -84 -11
l-62 -6 -4 82 c-3 74 -6 83 -31 105 -33 29 -76 31 -107 6z"/>
<path d="M1241 866 c-10 -11 -9 -21 3 -45 21 -40 20 -69 -4 -108 -26 -44 -10
-42 29 2 26 30 31 44 31 88 0 69 -29 99 -59 63z"/>
</g>
</svg>
