<?xml version="1.0" standalone="no"?>
<!DOCTYPE svg PUBLIC "-//W3C//DTD SVG 20010904//EN"
 "http://www.w3.org/TR/2001/REC-SVG-20010904/DTD/svg10.dtd">
<svg version="1.0" xmlns="http://www.w3.org/2000/svg"
 width="916.000000pt" height="915.000000pt" viewBox="0 0 916.000000 915.000000"
 preserveAspectRatio="xMidYMid meet">

<g transform="translate(0.000000,915.000000) scale(0.100000,-0.100000)"
fill="#a52423" stroke="none">
<path d="M6935 8344 c-81 -8 -294 -58 -410 -96 -129 -42 -371 -130 -420 -153
-16 -7 -77 -32 -135 -55 -310 -123 -615 -274 -787 -388 -115 -77 -212 -147
-223 -161 -3 -4 -32 -29 -65 -55 -170 -139 -386 -390 -493 -573 -34 -58 -29
-72 20 -49 57 25 145 49 161 43 12 -4 14 -16 10 -47 l-6 -42 39 26 c21 14 63
38 92 52 65 33 81 24 56 -29 -10 -20 -15 -39 -12 -42 3 -3 63 23 134 57 149
72 189 90 265 117 30 11 106 38 169 60 63 23 187 59 275 80 220 54 564 102
594 82 29 -19 -51 -131 -134 -189 -176 -123 -206 -196 -150 -367 14 -42 31
-107 37 -144 22 -129 -28 -265 -222 -601 -39 -69 -75 -127 -79 -130 -5 -3 -16
-21 -26 -40 -20 -38 -56 -93 -137 -210 -169 -243 -395 -491 -526 -579 -21 -13
-39 -27 -42 -31 -3 -3 -27 -21 -55 -40 -27 -18 -79 -55 -115 -81 -70 -51 -164
-106 -248 -145 -62 -28 -132 -31 -188 -8 -125 52 -325 -93 -371 -270 -15 -56
-16 -74 -5 -135 16 -97 69 -223 139 -334 107 -171 174 -248 325 -374 41 -34
266 -183 277 -183 5 0 11 -3 13 -7 2 -5 44 -27 94 -51 77 -36 104 -44 176 -49
47 -3 97 -3 111 1 25 6 67 64 67 92 0 8 4 14 9 14 5 0 11 10 15 23 8 33 136
168 219 230 151 113 272 158 370 137 55 -11 217 -87 254 -118 61 -53 90 -134
60 -173 -13 -18 -90 -66 -119 -76 -10 -3 -18 -9 -18 -14 0 -5 -4 -9 -9 -9 -40
0 -511 -328 -663 -461 -156 -137 -240 -315 -209 -441 28 -109 82 -192 230
-356 220 -243 461 -385 652 -386 98 -1 94 -4 296 205 150 155 441 410 547 479
13 8 45 31 72 50 59 41 191 110 213 110 10 0 45 -45 84 -107 92 -146 157 -232
251 -330 67 -69 89 -87 146 -109 64 -25 73 -26 211 -21 79 3 159 9 177 12 42
9 42 -6 1 -69 -185 -278 -599 -490 -1104 -565 -38 -6 -101 -16 -140 -22 -86
-14 -464 -13 -595 1 -167 19 -354 52 -455 80 -139 39 -245 73 -310 100 -45 19
-260 123 -265 129 -3 3 -39 28 -80 55 -74 49 -168 125 -221 179 -26 27 -42 60
-109 234 -47 120 -161 350 -213 429 -113 170 -214 175 -251 13 -44 -197 19
-517 155 -786 135 -267 336 -475 629 -649 112 -66 214 -118 308 -155 43 -17
95 -39 117 -49 22 -10 78 -30 125 -45 47 -15 117 -38 155 -51 39 -12 117 -34
175 -49 58 -14 121 -30 140 -35 157 -40 571 -48 795 -16 227 33 366 60 465 90
25 8 79 24 120 36 41 11 84 25 95 30 11 4 34 13 50 18 137 47 242 87 252 95 7
5 39 22 70 38 87 43 162 89 197 121 11 10 23 18 28 18 4 0 16 6 25 14 10 8 54
44 98 79 123 99 300 284 423 442 4 6 40 62 80 125 100 157 180 319 242 485
205 553 251 1060 141 1545 -61 266 -193 544 -371 781 -36 47 -78 104 -95 127
-16 23 -100 111 -185 195 -211 206 -394 328 -574 383 -36 10 -169 21 -456 35
-223 10 -418 23 -434 27 l-30 7 80 65 c43 35 81 67 84 70 3 4 43 34 90 69 86
63 110 82 231 181 36 30 86 71 110 90 24 19 88 79 143 134 79 79 106 114 135
175 33 69 36 84 36 161 0 79 -2 89 -37 153 -47 84 -86 127 -160 177 -104 69
-152 82 -347 90 -101 5 -178 13 -184 19 -6 6 -18 11 -27 11 -26 0 -41 65 -29
119 14 63 111 260 146 297 63 67 108 75 308 55 296 -30 413 43 511 320 45 127
54 171 54 257 0 95 -13 133 -61 179 -29 27 -144 93 -163 93 -3 0 -34 14 -68
30 -34 17 -67 30 -74 30 -8 0 -29 9 -48 19 -49 28 -290 116 -356 131 -30 6
-72 18 -93 26 -38 14 -200 25 -272 18z m660 -3303 c50 -11 104 -24 120 -29
203 -69 339 -148 461 -269 112 -112 163 -181 231 -316 19 -40 39 -74 43 -77
11 -7 85 -222 108 -315 61 -242 73 -352 61 -595 -10 -201 -18 -251 -75 -424
-26 -81 -60 -136 -82 -136 -5 0 -24 24 -42 53 -73 114 -162 226 -294 371 -99
108 -103 112 -207 206 -46 41 -94 85 -107 98 -12 12 -25 22 -27 22 -3 0 -32
21 -66 48 -34 26 -83 61 -109 79 -48 31 -48 33 -54 95 -3 35 -8 119 -11 188
-12 258 -79 642 -135 775 -39 92 -66 147 -91 187 -17 26 -27 53 -23 59 10 16
181 4 299 -20z m-606 -57 c30 -18 84 -102 95 -148 14 -58 -1 -83 -79 -136 -41
-28 -78 -50 -82 -50 -4 0 -30 -18 -57 -39 -60 -47 -76 -90 -76 -202 0 -134
-37 -211 -115 -243 -42 -18 -344 -59 -435 -60 -41 -1 -93 5 -115 12 -88 30
-116 136 -62 236 33 62 139 178 242 265 82 70 445 317 525 358 53 27 120 30
159 7z"/>
<path d="M2875 8291 c-130 -14 -281 -71 -397 -149 -120 -81 -194 -174 -234
-294 -24 -73 -28 -99 -28 -208 -1 -112 2 -133 28 -209 37 -108 55 -139 126
-210 101 -100 174 -279 175 -426 0 -71 -4 -88 -36 -155 -31 -65 -88 -156 -124
-197 -5 -6 -45 -47 -89 -91 -43 -44 -76 -85 -72 -90 3 -5 47 -15 98 -23 128
-19 935 -20 1093 -1 240 29 380 86 495 202 70 70 135 183 151 261 41 201 35
294 -32 519 -87 292 -305 666 -497 855 -58 57 -95 84 -202 143 -109 61 -293
90 -455 73z"/>
<path d="M4144 6417 c-86 -64 -107 -83 -197 -175 -102 -105 -96 -98 -172 -197
-92 -121 -123 -153 -161 -165 -39 -13 -58 -5 -122 51 -108 95 -254 136 -437
124 -88 -6 -280 -39 -320 -55 -18 -7 -109 -35 -195 -61 -98 -30 -305 -112
-480 -192 -53 -24 -204 -90 -245 -107 -11 -4 -69 -27 -130 -50 -60 -23 -128
-50 -150 -60 -22 -9 -58 -23 -80 -29 -36 -11 -115 -39 -170 -61 -210 -81 -336
-110 -494 -110 -127 0 -164 7 -331 64 -86 30 -156 33 -228 10 -109 -35 -162
-116 -188 -285 -13 -90 -13 -114 0 -218 26 -198 64 -320 155 -502 174 -346
304 -436 591 -409 63 6 146 18 185 26 38 9 88 20 110 24 93 20 279 79 580 184
106 37 162 53 169 46 16 -16 -6 -121 -48 -232 -103 -275 -362 -621 -631 -845
-109 -90 -117 -97 -171 -138 -77 -59 -209 -172 -245 -211 -69 -74 -146 -185
-172 -249 -53 -128 -26 -275 70 -393 115 -142 338 -343 467 -421 23 -14 51
-32 62 -39 29 -19 143 -72 154 -72 6 0 18 -4 28 -9 66 -34 220 -42 303 -17 59
18 139 59 210 107 90 61 90 61 110 -61 26 -163 88 -380 133 -466 87 -169 297
-268 571 -268 298 0 492 88 586 264 22 41 24 56 22 175 -1 104 -8 166 -36 310
-20 99 -43 230 -52 290 -8 61 -20 140 -25 177 -19 130 -4 515 26 674 41 223
108 421 214 639 85 173 106 225 179 445 70 209 236 725 255 790 52 185 62 415
25 581 -36 160 -40 192 -33 259 11 115 62 286 135 447 10 23 19 46 19 50 0 4
21 44 46 88 26 44 56 98 68 120 13 22 44 75 71 118 26 42 46 79 44 81 -2 3
-36 -19 -75 -47z"/>
</g>
</svg>
